<svg xmlns="http://www.w3.org/2000/svg" width="32" height="32" viewBox="0 0 32 32">
  <path id="at-light" d="M24,8a16,16,0,1,0,9.49,28.883.772.772,0,0,0,.135-1.11l-.327-.4a.772.772,0,0,0-1.052-.137A13.936,13.936,0,1,1,24,10.065c7.642,0,13.935,5.163,13.935,12.9,0,4.7-3.408,6.983-7.488,6.983-1.273,0-1.529-.7-1.258-2.185l2.069-10.585a.774.774,0,0,0-.76-.923h-.8a.774.774,0,0,0-.76.627,10.9,10.9,0,0,0-.249,1.655,4.858,4.858,0,0,0-4.734-2.776c-4.39,0-8.592,4.061-8.592,10.131,0,3.973,2.188,6.345,5.853,6.345A7.026,7.026,0,0,0,26.8,29.209C26.726,31,27.93,31.933,29.77,31.933c6.945,0,10.23-3.692,10.23-8.965C40,14.182,32.894,8,24,8ZM21.554,30.1c-2.367,0-3.779-1.62-3.779-4.333,0-4.819,3.275-7.842,6.272-7.842,2.507,0,3.749,1.793,3.749,4.241C27.795,25.922,25.319,30.1,21.554,30.1Z" transform="translate(-8 -8)" fill="#222936"/>
</svg>
