<svg xmlns="http://www.w3.org/2000/svg" xmlns:xlink="http://www.w3.org/1999/xlink" width="1064" height="1064" viewBox="0 0 1064 1064">
  <defs>
    <linearGradient id="linear-gradient" x1="0.525" x2="0.076" y2="0.739" gradientUnits="objectBoundingBox">
      <stop offset="0" stop-color="#ffb80a"/>
      <stop offset="1" stop-color="#f90"/>
    </linearGradient>
  </defs>
  <path id="_3" data-name="3" d="M-1094,10598a540.228,540.228,0,0,1-54.394-2.747,533.143,533.143,0,0,1-52.823-8.062c-17.135-3.506-34.289-7.917-50.984-13.109-16.5-5.131-32.944-11.149-48.878-17.89-15.782-6.675-31.429-14.213-46.5-22.4-14.968-8.131-29.726-17.1-43.863-26.647-14.07-9.5-27.849-19.81-40.955-30.626-13.078-10.793-25.789-22.346-37.779-34.336s-23.545-24.7-34.336-37.779c-10.822-13.113-21.126-26.893-30.626-40.955-9.552-14.14-18.518-28.9-26.648-43.863-8.192-15.081-15.729-30.728-22.4-46.506-6.737-15.926-12.755-32.371-17.889-48.877-5.192-16.692-9.6-33.846-13.109-50.984a533.288,533.288,0,0,1-8.062-52.822A540.484,540.484,0,0,1-1626,10066a540.484,540.484,0,0,1,2.747-54.394,533.288,533.288,0,0,1,8.062-52.822c3.507-17.139,7.917-34.292,13.109-50.984,5.134-16.506,11.153-32.951,17.889-48.877,6.673-15.778,14.21-31.425,22.4-46.506,8.13-14.965,17.1-29.723,26.648-43.863,9.5-14.067,19.808-27.847,30.626-40.955,10.792-13.076,22.344-25.787,34.336-37.779s24.7-23.543,37.779-34.336c13.106-10.816,26.885-21.121,40.955-30.626,14.139-9.552,28.9-18.517,43.863-26.647,15.075-8.189,30.721-15.727,46.5-22.4,15.934-6.739,32.379-12.759,48.878-17.89,16.7-5.193,33.85-9.6,50.984-13.109a533.31,533.31,0,0,1,52.823-8.062A540.228,540.228,0,0,1-1094,9534a540.218,540.218,0,0,1,54.394,2.747,533.29,533.29,0,0,1,52.823,8.062c17.134,3.506,34.287,7.916,50.984,13.109,16.5,5.131,32.944,11.15,48.878,17.89,15.783,6.676,31.429,14.213,46.5,22.4,14.967,8.131,29.725,17.1,43.863,26.647,14.071,9.506,27.85,19.81,40.955,30.626,13.079,10.794,25.789,22.346,37.779,34.336s23.545,24.7,34.336,37.779c10.818,13.108,21.122,26.888,30.626,40.955,9.553,14.142,18.519,28.9,26.648,43.863,8.192,15.081,15.729,30.728,22.4,46.506,6.736,15.926,12.755,32.37,17.89,48.877,5.192,16.692,9.6,33.846,13.109,50.984a533.308,533.308,0,0,1,8.062,52.822A540.52,540.52,0,0,1-562,10066a540.52,540.52,0,0,1-2.747,54.394,533.308,533.308,0,0,1-8.062,52.822c-3.507,17.139-7.917,34.292-13.109,50.984-5.134,16.507-11.153,32.952-17.89,48.877-6.673,15.778-14.21,31.425-22.4,46.506-8.13,14.965-17.1,29.723-26.648,43.863-9.5,14.063-19.8,27.842-30.626,40.955-10.791,13.076-22.344,25.787-34.336,37.779s-24.7,23.543-37.779,34.336c-13.105,10.816-26.885,21.12-40.955,30.626-14.138,9.551-28.9,18.517-43.863,26.647-15.076,8.189-30.722,15.728-46.5,22.4-15.935,6.74-32.38,12.759-48.878,17.89-16.7,5.192-33.849,9.6-50.984,13.109a533.115,533.115,0,0,1-52.823,8.062A540.218,540.218,0,0,1-1094,10598Zm.5-917c-212.566,0-385.5,172.935-385.5,385.5s172.935,385.5,385.5,385.5,385.5-172.935,385.5-385.5S-880.935,9681-1093.5,9681Z" transform="translate(1626 -9534)" fill="url(#linear-gradient)"/>
</svg>
