<svg xmlns="http://www.w3.org/2000/svg" width="24" height="24" viewBox="0 0 24 24">
  <path id="globe-light" d="M12,8A12,12,0,1,0,24,20,12,12,0,0,0,12,8Zm9.348,7.355H17.356a14.081,14.081,0,0,0-2.09-5.279A10.5,10.5,0,0,1,21.348,15.355ZM16.258,20a22.87,22.87,0,0,1-.208,3.1H7.95a23.15,23.15,0,0,1,0-6.194h8.1A22.87,22.87,0,0,1,16.258,20ZM12,9.548c1.3,0,2.971,2.134,3.779,5.806H8.221C9.029,11.682,10.7,9.548,12,9.548Zm-3.266.527a14.1,14.1,0,0,0-2.09,5.279H2.652A10.5,10.5,0,0,1,8.734,10.076ZM1.548,20a10.386,10.386,0,0,1,.469-3.1H6.4a24.538,24.538,0,0,0-.2,3.1,23.667,23.667,0,0,0,.2,3.1H2.018A10.386,10.386,0,0,1,1.548,20Zm1.1,4.645H6.644a14.081,14.081,0,0,0,2.09,5.279,10.5,10.5,0,0,1-6.082-5.279ZM12,30.452c-1.3,0-2.971-2.134-3.779-5.806h7.558C14.971,28.318,13.3,30.452,12,30.452Zm3.266-.527a14.1,14.1,0,0,0,2.09-5.279h3.992A10.5,10.5,0,0,1,15.266,29.924ZM17.6,23.1a24.539,24.539,0,0,0,.2-3.1,23.667,23.667,0,0,0-.2-3.1h4.379a10.451,10.451,0,0,1,0,6.194Z" transform="translate(0 -8)" fill="#222936"/>
</svg>
