<svg xmlns="http://www.w3.org/2000/svg" width="40" height="40" viewBox="0 0 40 40">
  <path id="instagram-square-brands" d="M20,47.237A4.762,4.762,0,1,0,24.764,52,4.762,4.762,0,0,0,20,47.237Zm11.135-3.661a4.821,4.821,0,0,0-2.715-2.715c-1.875-.74-6.339-.574-8.42-.574s-6.54-.172-8.421.574a4.821,4.821,0,0,0-2.715,2.715C8.125,45.452,8.29,49.921,8.29,52s-.165,6.542.578,8.423a4.821,4.821,0,0,0,2.715,2.715c1.875.74,6.339.574,8.421.574s6.539.172,8.42-.574a4.821,4.821,0,0,0,2.715-2.715c.746-1.875.574-6.344.574-8.422s.171-6.541-.574-8.422ZM20,59.321a7.312,7.312,0,1,1,5.18-2.142A7.321,7.321,0,0,1,20,59.321ZM27.623,46.08a1.7,1.7,0,1,1,1.211-.5,1.709,1.709,0,0,1-1.211.5ZM35.714,32H4.286A4.286,4.286,0,0,0,0,36.286V67.714A4.286,4.286,0,0,0,4.286,72H35.714A4.286,4.286,0,0,0,40,67.714V36.286A4.286,4.286,0,0,0,35.714,32ZM34.186,57.893a8.5,8.5,0,0,1-2.308,5.982A8.5,8.5,0,0,1,25.9,66.183c-2.358.133-9.428.133-11.786,0a8.511,8.511,0,0,1-5.982-2.308A8.47,8.47,0,0,1,5.82,57.893c-.133-2.359-.133-9.429,0-11.786a8.468,8.468,0,0,1,2.308-5.982,8.515,8.515,0,0,1,5.982-2.3c2.358-.133,9.428-.133,11.786,0a8.5,8.5,0,0,1,5.982,2.308,8.5,8.5,0,0,1,2.308,5.987C34.319,48.468,34.319,55.532,34.186,57.893Z" transform="translate(0 -32)" fill="#222936"/>
</svg>
