<svg xmlns="http://www.w3.org/2000/svg" width="32" height="32" viewBox="0 0 32 32">
  <path id="phone-alt-light" d="M30.818,21.961l-6.774-2.906a1.96,1.96,0,0,0-2.281.556L19.006,22.98A21.875,21.875,0,0,1,9.031,13L12.4,10.249a1.959,1.959,0,0,0,.556-2.281L10.05,1.187A1.958,1.958,0,0,0,7.812.055l-6.3,1.456A1.941,1.941,0,0,0,0,3.412,28.587,28.587,0,0,0,28.593,32.005,1.952,1.952,0,0,0,30.5,30.486l1.449-6.294a1.951,1.951,0,0,0-1.131-2.231Zm-2.263,8.044A26.579,26.579,0,0,1,2.006,3.455L8.231,2.018,11.106,8.73l-4.55,3.719c3.025,6.45,6.531,9.969,13.006,13.006l3.719-4.55,6.712,2.875Z" transform="translate(0 -0.005)" fill="#222936"/>
</svg>
