<?xml version="1.0" encoding="UTF-8"?>
<svg viewBox="0 0 1920 1080" xmlns="http://www.w3.org/2000/svg">
<defs>
<clipPath id="b">
<rect transform="translate(-3600 -8335)" width="1920" height="1080" fill="#f2f4f6" data-name="Rectangle 855"/>
</clipPath>
<linearGradient id="a" x1=".525" x2=".076" y2=".739">
<stop stop-color="#ffb80a" offset="0"/>
<stop stop-color="#f90" offset="1"/>
</linearGradient>
</defs>
<g transform="translate(3600 8335)" clip-path="url(#b)" data-name="Mask Group 26">
<g data-name="Group 2429">
<rect transform="translate(-3600 -8335)" width="1920" height="1080" fill="#f2f4f6" data-name="Rectangle 853"/>
<path transform="translate(-2538 -17573)" d="m-1094 10598a540.23 540.23 0 0 1-54.394-2.747 533.14 533.14 0 0 1-52.823-8.062c-17.135-3.506-34.289-7.917-50.984-13.109-16.5-5.131-32.944-11.149-48.878-17.89-15.782-6.675-31.429-14.213-46.5-22.4-14.968-8.131-29.726-17.1-43.863-26.647-14.07-9.5-27.849-19.81-40.955-30.626-13.078-10.793-25.789-22.346-37.779-34.336s-23.545-24.7-34.336-37.779c-10.822-13.113-21.126-26.893-30.626-40.955-9.552-14.14-18.518-28.9-26.648-43.863-8.192-15.081-15.729-30.728-22.4-46.506-6.737-15.926-12.755-32.371-17.889-48.877-5.192-16.692-9.6-33.846-13.109-50.984a533.29 533.29 0 0 1-8.062-52.822 540.48 540.48 0 0 1-2.754-54.397 540.48 540.48 0 0 1 2.747-54.394 533.29 533.29 0 0 1 8.062-52.822c3.507-17.139 7.917-34.292 13.109-50.984 5.134-16.506 11.153-32.951 17.889-48.877 6.673-15.778 14.21-31.425 22.4-46.506 8.13-14.965 17.1-29.723 26.648-43.863 9.5-14.067 19.808-27.847 30.626-40.955 10.792-13.076 22.344-25.787 34.336-37.779s24.7-23.543 37.779-34.336c13.106-10.816 26.885-21.121 40.955-30.626 14.139-9.552 28.9-18.517 43.863-26.647 15.075-8.189 30.721-15.727 46.5-22.4 15.934-6.739 32.379-12.759 48.878-17.89 16.7-5.193 33.85-9.6 50.984-13.109a533.31 533.31 0 0 1 52.823-8.062 540.23 540.23 0 0 1 54.401-2.75 540.22 540.22 0 0 1 54.394 2.747 533.29 533.29 0 0 1 52.823 8.062c17.134 3.506 34.287 7.916 50.984 13.109 16.5 5.131 32.944 11.15 48.878 17.89 15.783 6.676 31.429 14.213 46.5 22.4 14.967 8.131 29.725 17.1 43.863 26.647 14.071 9.506 27.85 19.81 40.955 30.626 13.079 10.794 25.789 22.346 37.779 34.336s23.545 24.7 34.336 37.779c10.818 13.108 21.122 26.888 30.626 40.955 9.553 14.142 18.519 28.9 26.648 43.863 8.192 15.081 15.729 30.728 22.4 46.506 6.736 15.926 12.755 32.37 17.89 48.877 5.192 16.692 9.6 33.846 13.109 50.984a533.31 533.31 0 0 1 8.062 52.822 540.52 540.52 0 0 1 2.753 54.397 540.52 540.52 0 0 1-2.747 54.394 533.31 533.31 0 0 1-8.062 52.822c-3.507 17.139-7.917 34.292-13.109 50.984-5.134 16.507-11.153 32.952-17.89 48.877-6.673 15.778-14.21 31.425-22.4 46.506-8.13 14.965-17.1 29.723-26.648 43.863-9.5 14.063-19.8 27.842-30.626 40.955-10.791 13.076-22.344 25.787-34.336 37.779s-24.7 23.543-37.779 34.336c-13.105 10.816-26.885 21.12-40.955 30.626-14.138 9.551-28.9 18.517-43.863 26.647-15.076 8.189-30.722 15.728-46.5 22.4-15.935 6.74-32.38 12.759-48.878 17.89-16.7 5.192-33.849 9.6-50.984 13.109a533.12 533.12 0 0 1-52.823 8.062 540.22 540.22 0 0 1-54.4 2.75zm0.5-917c-212.57 0-385.5 172.94-385.5 385.5s172.94 385.5 385.5 385.5 385.5-172.94 385.5-385.5-172.94-385.5-385.5-385.5z" fill="url(#a)" data-name="2"/>
</g>
</g>
</svg>
